<svg width="100" height="100" viewBox="0 0 100 100" fill="none" xmlns="http://www.w3.org/2000/svg">
<rect width="100" height="100" rx="6" fill="url(#paint0_radial_1200_1696)"/>
<path d="M49.9999 16.6667C41.1695 16.6996 32.7102 20.2221 26.4661 26.4662C20.222 32.7103 16.6995 41.1696 16.6666 50M49.9999 28.375C44.2646 28.375 38.7642 30.6534 34.7088 34.7089C30.6533 38.7643 28.3749 44.2647 28.3749 50M49.9999 71.625C55.7352 71.625 61.2356 69.3467 65.2911 65.2912C69.3466 61.2357 71.6249 55.7353 71.6249 50M49.9999 83.4375C58.8303 83.4046 67.2897 79.8821 73.5338 73.638C79.7779 67.394 83.3003 58.9346 83.3333 50.1042M49.9999 5.20837C41.141 5.20837 32.481 7.83536 25.115 12.7571C17.7491 17.6789 12.008 24.6744 8.61783 32.859C5.22766 41.0436 4.34064 50.0497 6.06893 58.7385C7.79723 67.4272 12.0632 75.4083 18.3274 81.6725C24.5917 87.9368 32.5728 92.2027 41.2615 93.931C49.9502 95.6593 58.9564 94.7723 67.141 91.3821C75.3256 87.992 82.3211 82.2509 87.2429 74.885C92.1646 67.519 94.7916 58.859 94.7916 50C94.7861 38.1222 90.0652 26.7325 81.6663 18.3336C73.2675 9.93478 61.8777 5.21389 49.9999 5.20837ZM49.9999 37.2084C52.5299 37.2084 55.003 37.9586 57.1066 39.3642C59.2102 40.7697 60.8497 42.7675 61.8179 45.1049C62.7861 47.4423 63.0394 50.0142 62.5458 52.4956C62.0522 54.9769 60.834 57.2562 59.045 59.0451C57.2561 60.8341 54.9768 62.0523 52.4955 62.5459C50.0141 63.0395 47.4421 62.7862 45.1048 61.818C42.7674 60.8498 40.7696 59.2103 39.3641 57.1067C37.9585 55.0031 37.2083 52.53 37.2083 50C37.2083 46.6075 38.556 43.3539 40.9549 40.955C43.3538 38.5561 46.6074 37.2084 49.9999 37.2084Z" stroke="white" stroke-width="4" stroke-linecap="round" stroke-linejoin="round"/>
<path d="M46.91 51.45C47.0407 51.45 47.134 51.5107 47.19 51.632C47.2553 51.7533 47.288 51.8933 47.288 52.052C47.288 52.192 47.26 52.3227 47.204 52.444C47.148 52.556 47.0687 52.612 46.966 52.612C46.8727 52.612 46.7653 52.598 46.644 52.57C46.588 52.5607 46.5273 52.5513 46.462 52.542C46.406 52.5327 46.35 52.528 46.294 52.528C46.1727 52.528 46.0653 52.5607 45.972 52.626C45.8787 52.6913 45.804 52.7707 45.748 52.864C45.6827 52.9573 45.636 53.0647 45.608 53.186C45.5707 53.298 45.552 53.4007 45.552 53.494C45.552 53.7087 45.6127 53.914 45.734 54.11C45.846 54.2967 46 54.46 46.196 54.6C46.392 54.74 46.616 54.852 46.868 54.936C47.12 55.0107 47.3813 55.048 47.652 55.048C47.8947 55.048 48.128 55.0107 48.352 54.936C48.5853 54.8613 48.7907 54.7587 48.968 54.628C49.1547 54.488 49.2993 54.3293 49.402 54.152C49.514 53.9653 49.57 53.76 49.57 53.536C49.57 53.2467 49.528 52.9853 49.444 52.752C49.3693 52.5093 49.262 52.29 49.122 52.094C48.9913 51.8887 48.8373 51.6973 48.66 51.52C48.4827 51.3427 48.2913 51.1747 48.086 51.016C47.778 50.7827 47.442 50.54 47.078 50.288C46.7233 50.0267 46.3873 49.7513 46.07 49.462C45.7527 49.1727 45.4913 48.8647 45.286 48.538C45.0713 48.202 44.964 47.8333 44.964 47.432C44.964 46.872 45.1087 46.3447 45.398 45.85C45.678 45.346 46.0607 44.9073 46.546 44.534C47.0313 44.1607 47.5913 43.8667 48.226 43.652C48.87 43.428 49.5467 43.316 50.256 43.316C50.9467 43.316 51.572 43.4327 52.132 43.666C52.7013 43.89 53.1353 44.1933 53.434 44.576C53.4713 44.632 53.5273 44.7207 53.602 44.842C53.686 44.9633 53.728 45.0613 53.728 45.136C53.728 45.2013 53.6813 45.2713 53.588 45.346C53.504 45.4113 53.4013 45.4767 53.28 45.542C53.168 45.598 53.0513 45.6493 52.93 45.696C52.8087 45.7333 52.72 45.752 52.664 45.752C52.5613 45.752 52.4633 45.7147 52.37 45.64C52.2767 45.556 52.1787 45.4207 52.076 45.234C52.048 45.1687 51.9967 45.0847 51.922 44.982C51.8567 44.87 51.7447 44.7627 51.586 44.66C51.4367 44.548 51.2313 44.4547 50.97 44.38C50.7087 44.3053 50.3727 44.268 49.962 44.268C49.5513 44.268 49.1873 44.3473 48.87 44.506C48.562 44.6647 48.3007 44.87 48.086 45.122C47.8807 45.374 47.7267 45.6587 47.624 45.976C47.5213 46.284 47.47 46.592 47.47 46.9C47.47 47.1987 47.512 47.4647 47.596 47.698C47.6893 47.922 47.806 48.1273 47.946 48.314C48.0953 48.5007 48.2633 48.6687 48.45 48.818C48.646 48.9673 48.8513 49.112 49.066 49.252C49.3273 49.4293 49.6027 49.6253 49.892 49.84C50.1813 50.0547 50.4473 50.302 50.69 50.582C50.9327 50.8527 51.1333 51.1607 51.292 51.506C51.4507 51.8513 51.53 52.248 51.53 52.696C51.53 53.1907 51.4507 53.662 51.292 54.11C51.1427 54.5487 50.9047 54.936 50.578 55.272C50.2513 55.5987 49.8313 55.86 49.318 56.056C48.8047 56.252 48.1887 56.35 47.47 56.35C47.0873 56.35 46.728 56.2613 46.392 56.084C46.056 55.9067 45.762 55.6827 45.51 55.412C45.2487 55.1413 45.0433 54.838 44.894 54.502C44.7447 54.166 44.67 53.8393 44.67 53.522C44.67 53.298 44.7073 53.0787 44.782 52.864C44.8473 52.6493 44.9547 52.4533 45.104 52.276C45.2533 52.0893 45.4493 51.9307 45.692 51.8C45.9253 51.66 46.2053 51.5573 46.532 51.492C46.672 51.464 46.798 51.45 46.91 51.45Z" fill="white"/>
<defs>
<radialGradient id="paint0_radial_1200_1696" cx="0" cy="0" r="1" gradientUnits="userSpaceOnUse" gradientTransform="translate(50 50) rotate(90) scale(50)">
<stop stop-color="#F0E52B"/>
<stop offset="1" stop-color="#E97C2F"/>
</radialGradient>
</defs>
</svg>
